<?xml version="1.0" encoding="UTF-8"?>
<svg id="a" xmlns="http://www.w3.org/2000/svg" viewBox="0 0 146.3 144.1">
    <defs>
        <linearGradient id="grad1" x1="0%" y1="66%" x2="88%" y2="0%">
            <stop offset="0%" style="stop-color:#FDCC63;stop-opacity:1" />
            <stop offset="20%" style="stop-color:#ffc371;stop-opacity:1" />
            <stop offset="40%" style="stop-color:#ffff89;stop-opacity:1" />
            <stop offset="60%" style="stop-color:#FDCC63;stop-opacity:1" />
            <stop offset="80%" style="stop-color:orange;stop-opacity:1" />
            <stop offset="100%" style="stop-color:orange;stop-opacity:1" />
        </linearGradient>
        <linearGradient id="grad2" x1="0%" y1="88%" x2="80%" y2="18%">
            <stop offset="0%" style="stop-color:#66CCFF;stop-opacity:1" />
            <stop offset="20%" style="stop-color:#66ccff;stop-opacity:1" />
            <stop offset="40%" style="stop-color:#33ccff;stop-opacity:1" />
            <stop offset="60%" style="stop-color:#66ccff;stop-opacity:1" />
            <stop offset="80%" style="stop-color:#88b8ff;stop-opacity:1" />
            <stop offset="100%" style="stop-color:#66ffcc;stop-opacity:1" />
        </linearGradient>
    </defs>
    <path fill="url(#grad1)"
          d="m9.2,41s-12.6,34.9.7,56c14.1,22.4,28.5,24.9,34.9,26.2,0,0-23.9-17.7-27.8-31.9,0,0,8.8,16.5,26.1,25,13.9,6.8,28.9,13.3,28.9,27.7,0,0-34.7-.5-54.9-23.3C-3,97.9-5,62.2,9.2,41Z"/>
    <path fill="url(#grad1)"
          d="m70.4,99.3c-9.9-6.9-15.5-25.4-7.8-41.2,1.2-2.8,3-3.6,3-3.6-4.1-.1-5.3.9-5.3.9-3.8-1.6-5.1,1-6,2.4-.9,1.4-7.9,3-7.9,3,1.4,1.9,7.2-.3,7.2-.3,0,0-2.5,2.9-3,7.3-.5,4.4-7.8,20.2-7.8,20.2,1.6,0,9.1-18.8,9.8-19.7-1.7,15-7.9,35.1,1.6,46.4s16.4,6.6,19.8,29.4c13.3-20,4.7-38.9-3.6-44.8Zm-11-42.4c-.7,2.4-3.1,1.8-3.1,1.8,1-2.3,3.1-1.8,3.1-1.8Z"/>
    <path fill="url(#grad1)" d="m58.4,57.3s-1.5-.3-2.1,1.4c0,0,1.7.3,2.1-1.4Z"/>

    <path fill="url(#grad2)" d="m79,1.9s-1.6-2.2-5.4-.5c-3.8,1.7-6.5,7.4-.5,9.9,0,0-5.8,1.6-2.6,7.3,3.2,5.7,8.4,2.5,8.4,2.5,0,0,5.9,5.8,10.4,0,4.4-5.8-2.7-12.3-6.1-11.1,0,0,11.8,3.1,2.9,6.8s-9.9-1.4-8.5-6.2c1.3-4.5,11.5-6.5,13.6-.7,2.9,8.1.5-16.7-12.2-8Z"/>
    <path fill="url(#grad2)"
          d="m124.1,19.3c-9.9-7.9-20-12.7-31.2-13.6-2.1-.2-3.7,2.2-1.7,2.8s.6,0-2.6-.5c-6.8-.9-7.6,2.6-7.6,2.6,4.3-1.2,11.3,3.2,4.2,7.2s1.8,3.9-.2,3.7c5.1,2.2,11.2,3.9,13.7,4.5,17.3,4.3,28.3,18.8,28.3,18.8-14.4-25.5-30.4-24.3-30.4-24.3,10.7-1.1,33,5.3,42.7,29.4,9.6,24.2-.3,52.2-.3,52.2,11.5-25.7,11.8-61.8-14.8-83Z"/>
    <path fill="url(#grad2)"
          d="m74.2,51c9.9,6.2,14.1,23.9,7.7,40-1,2.9-2.7,3.7-2.7,3.7l5-1.2c3.7,1.3,4.8-1.3,5.5-2.7.7-1.4,7.3-3.5,7.3-3.5-1.4-1.8-6.9.8-6.9.8,0,0,2.2-3,2.4-7.4.2-4.4,6.3-20.4,6.3-20.4-1.5,0-7.6,19.2-8.2,20.1,1.6-11.4,8.3-41.3-13-52.3-17.9-9.3-6.9-27.2-6.9-27.2-12.7,9.8-12.2,40.3,3.3,50.1Zm10.8,41c.5-2.4,2.9-2,2.9-2-.8,2.3-2.9,2-2.9,2Z"/>
    <path fill="url(#grad2)" d="m85.9,91.6s1.5.2,1.9-1.5c0,0-1.6-.2-1.9,1.5Z"/>
</svg>
